<?xml version="1.0" encoding="utf-8"?>
<!-- Generator: Adobe Illustrator 19.1.0, SVG Export Plug-In . SVG Version: 6.00 Build 0)  -->
<svg version="1.1" id="Слой_3" xmlns="http://www.w3.org/2000/svg" xmlns:xlink="http://www.w3.org/1999/xlink" x="0px" y="0px"
	 viewBox="0 0 128 128" enable-background="new 0 0 128 128" xml:space="preserve">
<g>
	<ellipse fill="#B8CBCD" cx="64.884" cy="115.147" rx="47.667" ry="10.186"/>
	<path fill="#F6E89A" d="M80.551,55.667l-26-2.333v-32.5c0-8.008-6.492-14.5-14.5-14.5c-8.008,0-14.5,6.492-14.5,14.5v39.833v52.667
		c0,2.209,15.446,4,34.5,4c19.054,0,34.5-1.791,34.5-4V69.667C94.551,61.936,88.283,55.667,80.551,55.667z"/>
	<path fill="#FFFFFF" d="M33.657,100.938c-4.7-1.069-6.106-1.748-6.106-1.748v12.644c0,0,2.083,0.881,6.104,1.76
		C33.687,109.252,33.591,105.279,33.657,100.938z"/>
	<path fill="#8D4520" d="M60.051,118.334c-9.29,0-18.035-0.421-24.626-1.185c-9.931-1.152-11.874-2.638-11.874-4.815v-91.5
		c0-9.098,7.402-16.5,16.5-16.5h10.5c1.104,0,2,0.896,2,2s-0.896,2-2,2h-10.5c-6.893,0-12.5,5.607-12.5,12.5v90.738
		c2.702,1.225,14.686,2.762,32.5,2.762c1.104,0,2,0.896,2,2S61.155,118.334,60.051,118.334z"/>
	<path fill="#F6E89A" d="M84.551,44.334c0,0-7-1-7,7c-2.736-2.249,3-13-7-13c-8,0-6,15-6,15v-32.5c0-8.008-6.492-14.5-14.5-14.5
		c-8.008,0-14.5,6.492-14.5,14.5v39.833v52.667c0,2.209,15.446,4,34.5,4c19.054,0,34.5-1.791,34.5-4V69.667
		c0-2.116,1-17.333-6-17.333c-4.858,0-5.877,2.754-7,5C91.551,45.334,87.456,44.334,84.551,44.334z"/>
	<path fill="#FFFFFF" d="M35.726,99.738v13.533c0,0,8.223,3.5,34.95,3.5s33.875-3.625,33.875-3.625v-13c0,0-3.438,3.5-34,3.5
		S35.726,99.738,35.726,99.738z"/>
	<path fill="#8D4520" d="M70.051,119.334c-34.736,0-36.5-1.805-36.5-4.75v-93.75c0-9.098,7.402-16.5,16.5-16.5
		c9.098,0,16.5,7.402,16.5,16.5v16.392c1.348-0.865,2.95-1.367,4.667-1.367c4.454,0,7.882,3.203,8.292,7.585
		c1.438-0.903,3.175-1.431,5.041-1.431c4.963,0,9,3.732,9,8.32v1.019c1.293-0.747,2.78-1.159,4.333-1.159
		c4.779,0,8.667,3.888,8.667,8.666v54.475c0,2.178-1.943,3.663-11.874,4.815C88.086,118.913,79.341,119.334,70.051,119.334z
		 M37.551,113.728c1.933,0.682,8.907,1.605,32.5,1.605c17.813,0,29.798-1.537,32.5-2.762V58.859c0-2.573-2.094-4.666-4.667-4.666
		c-1.731,0-3.311,0.952-4.124,2.485c-0.382,0.72-1.16,1.135-1.973,1.052c-0.39-0.04-1.055-0.214-1.554-0.892
		c-0.419-0.368-0.683-0.906-0.683-1.505v-5c0-2.668-2.596-4.32-5-4.32c-2.404,0-5,1.652-5,4.32c0,1.104-0.896,2-2,2
		c-1.105,0-2-0.896-2-2v-6c0-2.635-1.782-4.475-4.333-4.475c-2.573,0-4.667,2.094-4.667,4.667c0,1.104-0.896,2-2,2
		c-1.105,0-2-0.896-2-2V20.834c0-6.893-5.607-12.5-12.5-12.5c-6.893,0-12.5,5.607-12.5,12.5V113.728z"/>
	<path fill="#8D4520" d="M35.554,102.938c-0.089,0-0.179-0.006-0.27-0.018c-11.733-1.578-11.733-3.993-11.733-5.024
		c0-1.104,0.895-2,2-2c0.751,0,1.405,0.414,1.747,1.026c0.876,0.47,3.871,1.408,8.52,2.033c1.095,0.147,1.862,1.154,1.716,2.249
		C37.398,102.209,36.539,102.938,35.554,102.938z"/>
	<path fill="#8D4520" d="M70.051,105.334c-17.53,0-33.94-1.268-36.579-2.825c-0.951-0.562-1.268-1.788-0.706-2.739
		c0.562-0.951,1.787-1.268,2.739-0.706c1.635,0.78,14.983,2.271,34.546,2.271c18.277,0,30.418-1.618,32.692-2.856
		c0.32-0.676,1.01-1.144,1.808-1.144c1.104,0,2,0.896,2,2c0,2.178-1.943,3.663-11.875,4.815
		C88.086,104.913,79.341,105.334,70.051,105.334z"/>
	<path fill="#8D4520" d="M90.316,95.334H75.339c-1.104,0-2-0.896-2-2c0-3.94,3.609-7.245,7.43-10.745
		c3.168-2.901,6.759-6.189,6.759-8.961c0-3.514-2.979-5.094-5.094-5.094c-1.768,0-5.883,0.573-5.883,5.883c0,1.104-0.896,2-2,2
		c-1.105,0-2-0.896-2-2c0-7.295,5.324-9.883,9.883-9.883c4.47,0,9.094,3.401,9.094,9.094c0,4.532-4.096,8.283-8.057,11.911
		c-2.067,1.894-4.333,3.968-5.442,5.795h12.287c1.104,0,2,0.896,2,2S91.42,95.334,90.316,95.334z"/>
	<path fill="#8D4520" d="M63.551,95.334c-1.105,0-2-0.896-2-2v-6h-10c-0.729,0-1.399-0.396-1.752-1.034
		c-0.352-0.639-0.328-1.418,0.061-2.034l12-19c0.477-0.753,1.394-1.102,2.247-0.853c0.855,0.247,1.444,1.03,1.444,1.921v17h4
		c1.104,0,2,0.896,2,2s-0.896,2-2,2h-4v6C65.551,94.438,64.655,95.334,63.551,95.334z M55.18,83.334h6.371V73.246L55.18,83.334z"/>
	<path fill="#8D4520" d="M50.551,6.334l0.002,0.025C55.349,6.523,59.557,9,62.074,12.727c0.521,0.772,0.971,1.596,1.337,2.464
		c0.733,1.734,1.14,3.642,1.14,5.644v23.692c0-3.682,2.984-6.667,6.667-6.667c3.682,0,6.333,2.793,6.333,6.475v6
		c0-1.193,0.353-2.275,0.95-3.195c0.717-1.27,1.739-1.987,2.75-2.377c1.001-0.48,2.132-0.748,3.3-0.748c3.682,0,7,2.639,7,6.32v5
		c0.259,0.012,0.187,0.381,0.442,0.407c1.12-2.11,3.336-3.548,5.891-3.548c3.683,0,6.667,2.984,6.667,6.666v5.402
		c0.109,2.554,0,4.703,0,5.405v0.475v43.192c0,2.209-15.446,4-34.5,4c-2.159,0-4.269-0.008-6.317-0.023
		c-1.21,0.016-2.438,0.023-3.683,0.023c-19.054,0-34.5-1.791-34.5-4v-1V60.667V20.834c0-8.008,6.492-14.5,14.5-14.5H50.551
		 M50.551,2.334h-10.5c-10.201,0-18.5,8.299-18.5,18.5v39.833v51.667v1c0,4.827,6.18,5.937,13.644,6.802
		c6.664,0.772,15.491,1.198,24.856,1.198c1.247,0,2.479-0.008,3.693-0.023c2.046,0.016,4.151,0.023,6.307,0.023
		c9.364,0,18.191-0.426,24.855-1.198c7.465-0.865,13.645-1.975,13.645-6.802V70.142v-0.475c0-0.147,0.006-0.367,0.014-0.647
		c0.026-1.054,0.07-2.807-0.014-4.842v-5.318c0-5.881-4.785-10.666-10.667-10.666c-0.857,0-1.698,0.102-2.509,0.298
		c-0.929-4.814-5.43-8.477-10.824-8.477c-1.23,0-2.462,0.198-3.629,0.58c-1.424-4.015-5.126-6.734-9.704-6.734
		c-0.921,0-1.815,0.117-2.667,0.337V20.834c0-2.495-0.489-4.918-1.455-7.202c-0.462-1.094-1.037-2.153-1.707-3.146
		C62.182,5.74,56.903,2.737,51.19,2.386C50.982,2.352,50.768,2.334,50.551,2.334L50.551,2.334z"/>
	<path opacity="0.2" fill="#8D4520" d="M39.551,118.552c-1.657,0-3-1.343-3-3V20.834c0-9.486,8.3-17.5,18.125-17.5
		c1.657,0,3,1.343,3,3s-1.343,3-3,3c-6.572,0-12.125,5.266-12.125,11.5v94.718C42.551,117.209,41.208,118.552,39.551,118.552z"/>
</g>
</svg>
