<?xml version="1.0" encoding="utf-8"?>
<!-- Generator: Adobe Illustrator 19.1.0, SVG Export Plug-In . SVG Version: 6.00 Build 0)  -->
<svg version="1.1" id="Слой_3" xmlns="http://www.w3.org/2000/svg" xmlns:xlink="http://www.w3.org/1999/xlink" x="0px" y="0px"
	 viewBox="0 0 128 128" enable-background="new 0 0 128 128" xml:space="preserve">
<g>
	<path fill="#B8CBCD" d="M111.013,109.179c0,5.625-21.01,9.813-47.335,9.813c-26.326,0-48-4.188-48-9.813
		c0-5.626,21.341-10.188,47.667-10.188C89.67,98.991,111.013,103.553,111.013,109.179z"/>
	<path fill="#F7BB83" d="M81.916,104.991c-21.095,0-37.619-8.649-37.619-19.69c0-20.743,16.876-37.619,37.619-37.619
		c20.743,0,37.619,16.876,37.619,37.619C119.535,96.342,103.011,104.991,81.916,104.991z"/>
	<path fill="#6E4123" d="M81.916,49.682c19.672,0,35.619,15.947,35.619,35.619c0,9.771-15.632,17.69-35.619,17.69
		c-19.987,0-35.619-7.92-35.619-17.69C46.297,65.629,62.244,49.682,81.916,49.682 M81.916,45.682
		c-21.846,0-39.619,17.773-39.619,39.619c0,12.365,17.032,21.69,39.619,21.69s39.619-9.325,39.619-21.69
		C121.535,63.455,103.762,45.682,81.916,45.682L81.916,45.682z"/>
	<path fill="#FFFFFF" d="M48.058,90.301c-1.657,0-3-1.343-3-3c0-21.295,17.324-38.619,38.619-38.619c1.657,0,3,1.343,3,3
		c0,1.657-1.343,3-3,3c-17.986,0-32.619,14.633-32.619,32.619C51.058,88.958,49.716,90.301,48.058,90.301z"/>
	<path fill="#F7BB83" d="M39.74,115.991c-15.059,0-31.062-4.702-31.062-13.417c0-17.277,14.056-31.333,31.333-31.333
		c17.277,0,31.334,14.056,31.334,31.333C71.345,111.289,55.061,115.991,39.74,115.991z"/>
	<path fill="#6E4123" d="M40.011,73.241c16.2,0,29.334,13.133,29.334,29.333c0,6.306-13.554,11.417-29.605,11.417
		s-29.062-5.111-29.062-11.417C10.678,86.374,23.81,73.241,40.011,73.241 M40.011,69.241c-18.38,0-33.333,14.953-33.333,33.333
		c0,10.121,16.633,15.417,33.062,15.417c16.699,0,33.605-5.296,33.605-15.417C73.345,84.194,58.391,69.241,40.011,69.241
		L40.011,69.241z"/>
	<path fill="#FFFFFF" d="M10.218,110.506c-1.657,0-3-1.343-3-3c0-20.767,18.531-39.682,38.88-39.682c1.657,0,3,1.343,3,3
		c0,1.657-1.343,3-3,3c-16.9,0-32.88,16.368-32.88,33.682C13.218,109.163,11.875,110.506,10.218,110.506z"/>
	<path fill="#6E4123" d="M81.916,49.682c19.672,0,35.619,15.947,35.619,35.619c0,9.771-15.632,17.69-35.619,17.69
		c-4.455,0-8.691-0.396-12.589-1.115c0.005,0.232,0.018,0.464,0.018,0.698c0,6.306-13.554,11.417-29.605,11.417
		s-29.062-5.111-29.062-11.417c0-16.2,13.133-29.333,29.333-29.333c2.777,0,5.461,0.395,8.007,1.115
		C52.636,60.041,66.063,49.682,81.916,49.682 M81.916,43.682c-16.31,0-30.83,9.379-37.63,23.82
		c-1.419-0.174-2.847-0.261-4.275-0.261c-19.482,0-35.333,15.851-35.333,35.333c0,11.967,18.176,17.417,35.062,17.417
		c13.977,0,28.822-3.621,33.836-11.439c2.723,0.292,5.512,0.439,8.34,0.439c10.545,0,20.484-2.064,27.986-5.814
		c8.791-4.393,13.633-10.741,13.633-17.876C123.535,62.352,104.865,43.682,81.916,43.682L81.916,43.682z"/>
	<ellipse fill="#FFFFFF" cx="38.678" cy="88.173" rx="7.571" ry="4.818"/>
	<path fill="#6E4123" d="M38.678,94.991c-5.367,0-9.571-2.995-9.571-6.818c0-3.823,4.204-6.818,9.571-6.818
		c5.367,0,9.571,2.995,9.571,6.818C48.249,91.996,44.045,94.991,38.678,94.991z M38.678,85.354c-3.138,0-5.571,1.515-5.571,2.818
		c0,1.304,2.434,2.818,5.571,2.818c3.138,0,5.571-1.515,5.571-2.818C44.249,86.869,41.815,85.354,38.678,85.354z"/>
	<path fill="#6E4123" d="M38.678,89.354c-1.657,0-3-1.343-3-3V27.628c0-1.657,1.343-3,3-3c1.657,0,3,1.343,3,3v58.727
		C41.678,88.012,40.335,89.354,38.678,89.354z"/>
	<polygon fill="#F6E89A" points="61.678,37.628 38.678,47.991 38.678,26.628 61.678,37.628 	"/>
	<path fill="#6E4123" d="M38.678,50.991c-0.569,0-1.136-0.162-1.628-0.48c-0.855-0.553-1.372-1.501-1.372-2.52V26.628
		c0-1.03,0.528-1.988,1.4-2.538c0.871-0.55,1.965-0.613,2.894-0.168l23,11c1.054,0.504,1.719,1.572,1.706,2.74
		c-0.014,1.168-0.703,2.222-1.768,2.701l-23,10.363C39.516,50.903,39.096,50.991,38.678,50.991z M41.678,31.388v11.961l12.877-5.802
		L41.678,31.388z"/>
	<rect x="78.678" y="48.252" fill="#FFFFFF" width="8" height="15.739"/>
	<path fill="#6E4123" d="M86.678,65.991h-8c-1.105,0-2-0.896-2-2V48.252c0-1.104,0.895-2,2-2h8c1.104,0,2,0.896,2,2v15.739
		C88.678,65.096,87.782,65.991,86.678,65.991z M80.678,61.991h4V50.252h-4V61.991z"/>
	<path fill="#B2EDA6" d="M101.789,44.921l-0.005-0.01c0-0.011,0.003-0.022,0.003-0.033h-0.021L84.734,18.991L67.702,44.878h-0.024
		c0,0.013,0.003,0.025,0.003,0.038l-0.003,0.005h0.004c0.08,2.788,7.924,8.556,17.294,8.556c9.37,0,16.731-5.768,16.808-8.556
		H101.789z"/>
	<path fill="#3C663E" d="M84.975,55.477c-9.486,0-18.934-5.867-19.284-10.335c-0.008-0.067-0.012-0.134-0.013-0.201
		c-0.001-0.022-0.001-0.043-0.001-0.063c0-0.509,0.19-0.974,0.503-1.326l16.883-25.66c0.37-0.562,0.998-0.9,1.671-0.9l0,0
		c0.673,0,1.301,0.339,1.671,0.9l16.921,25.72c0.287,0.345,0.461,0.786,0.461,1.267c0,0.033-0.001,0.068-0.003,0.104
		c-0.001,0.043-0.004,0.087-0.009,0.13C103.483,49.26,95.087,55.477,84.975,55.477z M69.846,45.259
		c1.115,1.91,7.387,6.218,15.13,6.218c8.048,0,13.62-4.4,14.646-6.219L84.734,22.63L69.846,45.259z"/>
	<path fill="#B2EDA6" d="M98.221,28.496l-0.004-0.008c0-0.009,0.001-0.017,0.001-0.026h-0.017L84.734,7.991L71.265,28.462h-0.02
		c0,0.01,0.002,0.02,0.003,0.029l-0.003,0.005h0.004c0.063,2.205,6.266,6.766,13.676,6.766c7.409,0,13.23-4.56,13.289-6.766H98.221z
		"/>
	<path fill="#3C663E" d="M84.926,37.262c-7.823,0-15.33-4.755-15.664-8.53c-0.009-0.071-0.014-0.142-0.015-0.213
		c-0.001-0.02-0.001-0.039-0.001-0.057c0-0.498,0.182-0.953,0.483-1.304L83.063,6.892c0.37-0.561,0.998-0.9,1.671-0.9l0,0
		c0.673,0,1.301,0.339,1.671,0.9l13.368,20.322c0.277,0.342,0.444,0.775,0.444,1.248c0,0.007,0,0.015,0,0.023
		c0,0.076-0.004,0.153-0.013,0.229C99.906,32.527,92.78,37.262,84.926,37.262z M73.477,28.739c1.122,1.479,5.662,4.522,11.448,4.522
		c5.686,0,10.037-3.031,11.08-4.498L84.734,11.63L73.477,28.739z"/>
	<polygon fill="#FFFFFF" points="104.678,71.991 97.678,71.991 97.678,59.815 104.678,59.991 	"/>
	<path fill="#6E4123" d="M104.678,73.991h-7c-1.105,0-2-0.896-2-2V59.815c0-0.539,0.218-1.056,0.603-1.432
		c0.386-0.377,0.914-0.595,1.446-0.567l7,0.176c1.085,0.027,1.95,0.914,1.95,1.999v12C106.678,73.096,105.782,73.991,104.678,73.991
		z M99.678,69.991h3v-8.05l-3-0.075V69.991z"/>
	<path fill="#B2EDA6" d="M113.678,56.56l-0.004-0.008c0-0.008,0.002-0.017,0.002-0.025h-0.017l-13.176-20.025L87.308,56.526h-0.02
		c0,0.01,0.003,0.02,0.003,0.029l-0.003,0.004h0.003c0.063,2.156,6.13,6.618,13.379,6.618c7.249,0,12.943-4.462,13.002-6.618
		H113.678z"/>
	<path fill="#3C663E" d="M100.671,65.178c-7.686,0-15.064-4.691-15.369-8.406c-0.007-0.06-0.011-0.12-0.012-0.18
		c-0.001-0.022-0.001-0.044-0.001-0.065c0-0.498,0.182-0.953,0.483-1.304l13.04-19.821c0.37-0.562,0.998-0.9,1.671-0.9
		c0.673,0,1.301,0.339,1.671,0.9l13.077,19.876c0.277,0.343,0.444,0.776,0.444,1.249c0,0.025-0.001,0.052-0.002,0.079
		c-0.001,0.048-0.004,0.095-0.008,0.141C115.404,60.5,108.394,65.178,100.671,65.178z M89.526,56.795
		c1.123,1.442,5.55,4.383,11.145,4.383c5.598,0,9.761-2.904,10.79-4.354L100.483,40.14L89.526,56.795z"/>
	<path fill="#B2EDA6" d="M110.917,43.853l-0.004-0.006c0.001-0.007,0.002-0.013,0.002-0.021h-0.014l-10.418-15.836L90.065,43.827
		H90.05c0,0.008,0.002,0.015,0.002,0.022l-0.002,0.004h0.003c0.049,1.706,4.847,5.233,10.579,5.233
		c5.732,0,10.235-3.527,10.281-5.233H110.917z"/>
	<path fill="#3C663E" d="M100.632,51.087c-5.92,0-12.278-3.575-12.569-7.014c-0.007-0.063-0.011-0.125-0.012-0.188
		c-0.001-0.02-0.001-0.039-0.001-0.058c0-0.488,0.175-0.936,0.466-1.283l10.297-15.652c0.37-0.562,0.998-0.9,1.671-0.9
		c0.673,0,1.301,0.339,1.671,0.9l10.328,15.699c0.271,0.341,0.433,0.77,0.433,1.236c0,0.021,0,0.045-0.001,0.068
		c-0.001,0.046-0.004,0.093-0.008,0.139C112.673,47.178,106.943,51.087,100.632,51.087z M92.342,44.006
		c1.054,1.12,4.269,3.081,8.29,3.081c3.939,0,7.024-1.947,8.012-3.054l-8.16-12.403L92.342,44.006z"/>
	<path fill="#3C663E" d="M84.734,7.991l13.467,20.471h0.017c0,0.01-0.001,0.018-0.001,0.026l0.004,0.008h-0.006
		c-0.031,1.164-1.678,2.98-4.306,4.439l1.66,2.525l4.914-7.469l10.418,15.836h0.014c0,0.008-0.001,0.014-0.002,0.021l0.004,0.006
		h-0.004c-0.024,0.9-1.299,2.306-3.332,3.435l6.078,9.238h0.017c0,0.008-0.002,0.017-0.002,0.025l0.004,0.008h-0.005
		c-0.059,2.156-5.753,6.618-13.002,6.618c-7.249,0-13.316-4.462-13.379-6.618h-0.003l0.003-0.004c0-0.01-0.003-0.02-0.003-0.029
		h0.02l2.324-3.533c-1.476,0.301-3.033,0.483-4.657,0.483c-9.37,0-17.214-5.768-17.294-8.556h-0.004l0.003-0.005
		c0-0.013-0.003-0.025-0.003-0.038h0.024l7.911-12.023c-2.642-1.445-4.331-3.216-4.363-4.358h-0.004l0.003-0.005
		c-0.001-0.01-0.003-0.02-0.003-0.029h0.02L84.734,7.991 M113.676,56.526h0.005 M84.734,3.991c-1.346,0-2.601,0.677-3.342,1.802
		L68.079,26.028c-0.521,0.674-0.833,1.518-0.833,2.434c0,0.081,0.003,0.165,0.008,0.25c0.003,0.041,0.005,0.082,0.009,0.123
		c0.142,2.012,1.395,3.72,2.879,5.059l-5.609,8.525c-0.535,0.679-0.854,1.532-0.854,2.459c0,0.067,0.002,0.138,0.006,0.209
		c0.003,0.064,0.007,0.128,0.013,0.191c0.429,5.656,10.126,11.539,19.678,12.146c0.912,4.949,9.246,9.753,17.297,9.753
		c8.251,0,16.487-4.98,16.979-10.161c0.009-0.08,0.016-0.161,0.021-0.242c0.005-0.082,0.008-0.165,0.008-0.248
		c0-0.944-0.327-1.813-0.874-2.496l-3.852-5.854c0.991-1.058,1.806-2.373,1.94-3.904c0.021-0.189,0.026-0.38,0.02-0.57
		c-0.027-0.873-0.334-1.675-0.833-2.32l-10.255-15.588c-0.74-1.125-1.996-1.802-3.342-1.802c-0.142,0-0.282,0.008-0.421,0.022
		L88.076,5.793C87.336,4.668,86.08,3.991,84.734,3.991L84.734,3.991z"/>
</g>
</svg>
